<?xml version="1.0" encoding="utf-8"?>
<!-- Generator: Adobe Illustrator 16.0.0, SVG Export Plug-In . SVG Version: 6.00 Build 0)  -->
<!DOCTYPE svg PUBLIC "-//W3C//DTD SVG 1.0//EN" "http://www.w3.org/TR/2001/REC-SVG-20010904/DTD/svg10.dtd">
<svg version="1.0" id="Layer_1" xmlns="http://www.w3.org/2000/svg" xmlns:xlink="http://www.w3.org/1999/xlink" x="0px" y="0px"
	 width="30px" height="30px" viewBox="0 0 30 30" enable-background="new 0 0 30 30" xml:space="preserve">
<g>
	<path fill="#42C2C9" d="M14.996,30.021C6.73,30.021,0,23.291,0,15.022c0-8.275,6.73-15,14.996-15c8.275,0,15.004,6.726,15.004,15
		C30,23.291,23.271,30.021,14.996,30.021 M14.996,2.019c-7.164,0-12.993,5.836-12.993,13.003c0,7.166,5.829,13,12.993,13
		c7.168,0,12.998-5.834,12.998-13C27.994,7.855,22.164,2.019,14.996,2.019"/>
	<g>
		<path fill="#42C2C9" d="M20.099,19.908c-0.219,0.33-0.603,0.438-0.931,0.221c-2.568-1.586-5.793-1.914-9.621-1.041
			c-0.383,0.109-0.711-0.162-0.82-0.49c-0.109-0.383,0.163-0.711,0.492-0.82c4.156-0.93,7.764-0.547,10.605,1.201
			C20.209,19.145,20.262,19.58,20.099,19.908 M21.41,16.902c-0.273,0.383-0.765,0.547-1.148,0.273
			c-2.952-1.804-7.436-2.352-10.879-1.255c-0.438,0.107-0.93-0.112-1.039-0.549c-0.109-0.438,0.109-0.931,0.546-1.039
			c3.992-1.203,8.911-0.602,12.302,1.476C21.52,15.972,21.684,16.52,21.41,16.902 M21.52,13.839
			c-3.498-2.076-9.349-2.294-12.684-1.256c-0.547,0.163-1.094-0.163-1.258-0.655c-0.164-0.549,0.164-1.095,0.656-1.258
			c3.883-1.148,10.278-0.931,14.324,1.475c0.492,0.275,0.655,0.929,0.383,1.422C22.668,13.95,22.012,14.114,21.52,13.839"/>
	</g>
</g>
</svg>
