<?xml version="1.0" encoding="utf-8"?>
<!-- Generator: Adobe Illustrator 16.0.0, SVG Export Plug-In . SVG Version: 6.00 Build 0)  -->
<!DOCTYPE svg PUBLIC "-//W3C//DTD SVG 1.0//EN" "http://www.w3.org/TR/2001/REC-SVG-20010904/DTD/svg10.dtd">
<svg version="1.0" id="Layer_1" xmlns="http://www.w3.org/2000/svg" xmlns:xlink="http://www.w3.org/1999/xlink" x="0px" y="0px"
	 width="30px" height="30px" viewBox="0 0 30 30" enable-background="new 0 0 30 30" xml:space="preserve">
<g>
	<path fill="#42C2C9" d="M14.875,29.979c-8.273,0-15.002-6.73-15.002-15.002c0-8.272,6.729-14.998,15.002-14.998
		c8.269,0,14.998,6.726,14.998,14.998C29.873,23.248,23.144,29.979,14.875,29.979 M14.875,1.982
		c-7.173,0-13.007,5.831-13.007,12.995c0,7.17,5.833,13.002,13.007,13.002c7.167,0,12.998-5.832,12.998-13.002
		C27.874,7.813,22.043,1.982,14.875,1.982"/>
	<path fill="#42C2C9" d="M22.598,11.797c0,0-0.155-1.082-0.627-1.556c-0.602-0.626-1.271-0.632-1.58-0.665
		c-2.205-0.158-5.508-0.158-5.508-0.158h-0.016c0,0-3.307,0-5.512,0.158c-0.311,0.033-0.981,0.039-1.58,0.665
		c-0.472,0.474-0.631,1.556-0.631,1.556S6.99,13.07,6.99,14.342v1.191c0,1.266,0.155,2.533,0.155,2.533s0.159,1.082,0.631,1.561
		c0.599,0.627,1.387,0.605,1.737,0.672c1.259,0.123,5.363,0.154,5.363,0.154s3.311-0.008,5.516-0.162
		c0.309-0.037,0.978-0.037,1.58-0.664c0.472-0.479,0.627-1.561,0.627-1.561s0.154-1.268,0.154-2.533v-1.191
		C22.752,13.07,22.598,11.797,22.598,11.797 M12.771,17.467v-5.394l5.208,2.703L12.771,17.467z"/>
</g>
</svg>
